<svg xmlns="http://www.w3.org/2000/svg" viewBox="0 0 289.49 286.49"><defs><style>.cls-1,.cls-23{fill:#fff;}.cls-2{fill:#00a6ba;}.cls-3{fill:#e19b6b;}.cls-4{fill:#f5a15b;}.cls-5{fill:#d58954;}.cls-6{fill:#f7b073;}.cls-7{fill:#f9eaa3;}.cls-8{fill:#cebb5d;}.cls-9{fill:#efdf79;}.cls-10{fill:#eb596f;}.cls-11{fill:#1d1d1b;}.cls-12,.cls-14,.cls-15{fill:none;}.cls-12,.cls-14,.cls-22,.cls-23{stroke:#1d1d1b;}.cls-12,.cls-13,.cls-14,.cls-15,.cls-22,.cls-23{stroke-miterlimit:10;}.cls-13{fill:#e30613;stroke:#e30613;}.cls-14,.cls-15{stroke-width:0.5px;}.cls-15{stroke:#281c19;}.cls-16{fill:#f5a259;}.cls-17{fill:#f9c29a;}.cls-18{fill:#d0a382;}.cls-19{fill:#312783;}.cls-20{fill:#b2b2b2;}.cls-21{fill:#23175a;}.cls-22{fill:#ededed;}</style></defs><title>Recurso 2gato</title><g id="Capa_2" data-name="Capa 2"><g id="vector"><path class="cls-1" d="M146.24,0a143.26,143.26,0,0,0-68.3,269.18,105.56,105.56,0,0,1-2.2-21.5c0-47.81,31.57-86.56,70.5-86.56s70.5,38.75,70.5,86.56a105.56,105.56,0,0,1-2.19,21.5A143.26,143.26,0,0,0,146.24,0Z"/><path class="cls-2" d="M143.24,0a143.26,143.26,0,0,0-68.3,269.18,105.56,105.56,0,0,1-2.2-21.5c0-47.81,31.57-86.56,70.5-86.56s70.5,38.75,70.5,86.56a105.56,105.56,0,0,1-2.19,21.5A143.26,143.26,0,0,0,143.24,0Z"/><path class="cls-3" d="M158.24,215.24s69.67,27,65.34-19.66-9-99.67,8-91.67,24.33,32.67,12.33,22.67-17-2.67-16.33,6.33.33,35,2.33,55.33,7.67,39-3,41.34-56.33-1.67-56.33-1.67Z"/><path class="cls-4" d="M213.74,247.68c0-47-30.49-85.23-68.5-86.53-38,1.3-68.5,39.54-68.5,86.53a105.56,105.56,0,0,0,2.2,21.5,141.69,141.69,0,0,0,16,7.43,84.49,84.49,0,0,1-1-13c0-35.85,22.09-64.91,49.34-64.91.67,0,1.34,0,2,.07s1.33-.07,2-.07c27.25,0,49.34,29.06,49.34,64.91a84.5,84.5,0,0,1-1,13,142.5,142.5,0,0,0,16-7.43A105.56,105.56,0,0,0,213.74,247.68Z"/><path class="cls-4" d="M147.24,198.74c-.67,0-1.33,0-2,.07,26.32,1.38,47.34,29.87,47.34,64.84a84.35,84.35,0,0,1-1.27,14.56c1.43-.5,2.84-1,4.25-1.6a84.5,84.5,0,0,0,1-13C196.58,227.8,174.49,198.74,147.24,198.74Z"/><path class="cls-5" d="M76.74,247.68c0-47,30.49-85.23,68.5-86.53-.66,0-1.33,0-2,0-38.93,0-70.5,38.75-70.5,86.56a105.56,105.56,0,0,0,2.2,21.5,141.78,141.78,0,0,0,20.23,9c-.09-.53-.16-1.07-.24-1.6a141.69,141.69,0,0,1-16-7.43A105.56,105.56,0,0,1,76.74,247.68Z"/><path class="cls-4" d="M93.9,263.65a84.49,84.49,0,0,0,1,13c1.4.55,2.82,1.1,4.24,1.6a85.35,85.35,0,0,1-1.27-14.56c0-35,21-63.46,47.34-64.84-.66,0-1.33-.07-2-.07C116,198.74,93.9,227.8,93.9,263.65Z"/><path class="cls-6" d="M143.24,198.74c-27.25,0-49.34,29.06-49.34,64.91a85.35,85.35,0,0,0,1.27,14.56,143.68,143.68,0,0,0,96.14,0,84.35,84.35,0,0,0,1.27-14.56C192.58,227.8,170.49,198.74,143.24,198.74Z"/></g><g id="cara"><path class="cls-7" d="M130,161.19c3.14,3.22,6.74,2.38,10.73,1.57,5.19-1.06,9.76,3,15.19,1.29,3.06-1,1.75-5.78-1.33-4.82-3.8,1.19-6.58-1.16-10.11-1.7-3.24-.5-8.52,2.62-10.95.12-2.25-2.3-5.78,1.23-3.53,3.54Z"/><path class="cls-5" d="M94.17,156.71c-5.33-3.57-8.39-7.66-8.39-12A10.13,10.13,0,0,1,87,139.9a56.64,56.64,0,0,1-1.67-13.59c0-32.67,27.86-59.36,63-61.26-1.33-.07-2.66-.12-4-.12-37,0-67,27.48-67,61.38A56.64,56.64,0,0,0,79,139.9a10.13,10.13,0,0,0-1.26,4.78c0,4.37,3.06,8.46,8.39,12,11.54,18.49,33.27,31,58.2,31,1.34,0,2.67,0,4-.11C125.13,186.31,105.09,174.21,94.17,156.71Z"/><path class="cls-4" d="M202.56,156.71c5.34-3.57,8.39-7.66,8.39-12a10.24,10.24,0,0,0-1.25-4.78,56.64,56.64,0,0,0,1.67-13.59c0-32.67-27.86-59.36-63-61.26-35.14,1.9-63,28.59-63,61.26A56.64,56.64,0,0,0,87,139.9a10.13,10.13,0,0,0-1.26,4.78c0,4.37,3.06,8.46,8.39,12,10.92,17.5,31,29.6,54.2,30.86C171.6,186.31,191.64,174.21,202.56,156.71Z"/><path class="cls-8" d="M128,158c0-7.65,7.75-14,17.75-14.87-.82-.08-1.65-.13-2.5-.13-11.18,0-20.25,6.72-20.25,15s9.07,15,20.25,15c.85,0,1.68-.05,2.5-.12C135.74,172,128,165.65,128,158Z"/><ellipse class="cls-9" cx="145.74" cy="157.99" rx="17.75" ry="14.87"/><path class="cls-10" d="M136.68,164.11c.94,1.88,1.36,3.27,3.33,4.36L142.3,167a11.53,11.53,0,0,1-1.11-.56c-.7-.36-3.41.62-2.49,1.31a7.52,7.52,0,0,0,6.7,1.59,5.94,5.94,0,0,0,4.27-4.42c.18-.94.18-1.31-.57-1.87a15,15,0,0,0-4.22-1.73,7.45,7.45,0,0,0-3.29,0c-1.38.27-1.7.93-2.56,1.88l1.72-.6-.66-.08c-.47-.08-3.16.51-2.22,1.41.6.57.95,1.38,1.58,1.9a14.72,14.72,0,0,0,2.42,1.36c1.39.71,2.92,1.19,4.39.4,1.05-.57,1.83-1.7,1.17-2.86-.91-1.6-3.6-1.78-5.14-2.3l-1.75,1.65c1.22.2,2,1.79,3.11,2.38.9.45,3.54-.83,2.29-1.46-1.56-.8-1.79-2.27-3.65-2.57-.88-.14-3.49,1.07-1.75,1.65.88.3,1.81.46,2.69.78s2.37,1.66.66.71a12.74,12.74,0,0,1-1.79-.95c-.63-.5-1-1.29-1.55-1.85l-2.22,1.4c1,.18,2.17.36,3-.42.19-.17.41-.69.57-.79.31-.2,1.54.22,2.13.42s2.54.75,2.74,1.15-.05.92-.15,1.21a2.76,2.76,0,0,1-2.57,2.14,6.16,6.16,0,0,1-2.71-1.27l-2.49,1.31c.37.2.74.39,1.12.55.85.39,3.58-.75,2.29-1.45-1.67-.93-1.94-2.12-2.72-3.69-.52-1-3.36-.13-2.9.78Z"/><circle class="cls-11" cx="115.41" cy="125.24" r="13"/><circle class="cls-11" cx="172.12" cy="125.24" r="13"/><line class="cls-12" x1="143.24" y1="153.72" x2="143.24" y2="161.12"/><path class="cls-13" d="M151.76,143.24l-8.48,11q-4.28-5.49-8.56-11,4.26,0,8.56,0T151.76,143.24Z"/><path class="cls-14" d="M130,161.12a9.12,9.12,0,0,0,5.54,2.44c3.47.1,4.27-2.48,7.65-2.57,4.11-.1,5.72,3.65,9.22,3a6.76,6.76,0,0,0,4-2.87"/><path class="cls-14" d="M136.64,163.49a6.36,6.36,0,0,0,1,3.25,7,7,0,0,0,5.41,2.89,6.47,6.47,0,0,0,4.37-1.26,6.55,6.55,0,0,0,2.42-4.6"/><circle class="cls-1" cx="112.97" cy="121.03" r="4.35"/><circle class="cls-1" cx="168.99" cy="120.12" r="3.88"/><line class="cls-15" x1="154.24" y1="146.49" x2="191.49" y2="143.87"/><line class="cls-15" x1="153.87" y1="149.24" x2="192.99" y2="149.37"/><line class="cls-15" x1="154.12" y1="152.12" x2="190.99" y2="155.87"/><line class="cls-15" x1="130.06" y1="147.49" x2="92.81" y2="144.87"/><line class="cls-15" x1="130.99" y1="150.37" x2="91.87" y2="150.49"/><line class="cls-15" x1="129.74" y1="152.49" x2="92.87" y2="156.24"/></g><g id="gora"><polygon class="cls-16" points="199.91 75.58 199.91 46.58 177.58 46.58 199.91 75.58"/><polygon class="cls-17" points="197.12 73.83 197.12 49.49 179.08 49.49 197.12 73.83"/><polygon class="cls-5" points="86.64 75.56 86.64 46.55 108.97 46.55 86.64 75.56"/><polygon class="cls-18" points="90.14 79.18 90.14 50.18 112.47 50.18 90.14 79.18"/><ellipse class="cls-19" cx="143.24" cy="41.14" rx="8.13" ry="1.15"/><path class="cls-1" d="M100.89,106.85a9.15,9.15,0,0,0,3.66.22c2.5-.27,22.58-.35,44.46-.36C130.66,106.7,111.58,106.73,100.89,106.85Z"/><path class="cls-1" d="M149,106.71c24.56,0,47.8.09,47.8.09l.05,0C185.13,106.73,166.49,106.7,149,106.71Z"/><path class="cls-20" d="M98.53,104.6c-3-13.74-3.68-32.24,8.3-48.72.83-1.14,1.7-2.24,2.6-3.3,0,0,3.06-4.15,10.32-6.06s15.53-4.49,22-5c2.53-.18,6.12-.3,9.55-.38L149.62,41s-13.42,0-19.88.51-14.73,3.07-22,5-10.32,6.06-10.32,6.06c-.9,1.06-1.77,2.16-2.6,3.3-12,16.48-11.34,35-8.3,48.72,0,0,.28,3.08,6,2.47.87-.09,3.88-.16,8.34-.22C98.69,106.18,98.53,104.6,98.53,104.6Z"/><path class="cls-1" d="M199.68,93.94s-3.5-29.76-5.61-34.42-5-6.74-9.8-10.62-14-4.76-18-5.85c-3.08-.84-11.41-1.59-15-1.88-3.43.08-7,.2-9.55.38-6.46.48-14.73,3.07-22,5s-10.32,6.06-10.32,6.06c-.9,1.06-1.77,2.16-2.6,3.3-12,16.48-11.34,35-8.3,48.72,0,0,.16,1.58,2.36,2.25,10.69-.12,29.77-.15,48.12-.14,17.48,0,36.12,0,47.85.05l3.33-2.21Z"/><path class="cls-21" d="M98.44,53.6s-9,9-11,18.23-6.08,33.06-6.08,33.06-.08,3.54,2.28,3.13c1-.16,2.24-.46,3.4-.76,1.7-.44,3.19-.87,3.19-.87l-.59-1.16s1.26-10,1.43-14-.17-9.32-.17-9.32L91.26,74s.59-9.12,2.79-13.13S98.44,53.6,98.44,53.6Z"/><path class="cls-21" d="M97.78,108.77a10.3,10.3,0,0,1,.24-4.19,27,27,0,0,0,.4-4.36s4.81-.45,14.19-2.24,20-2.58,29.84-3.09c2.07-.11,4.07-.19,6.1-.24-6.46-.15-11.56-.05-17.1.24-9.86.51-20.45,1.3-29.84,3.09s-14.19,2.24-14.19,2.24a27,27,0,0,1-.4,4.36,10.3,10.3,0,0,0-.24,4.19c.24,1.09.52,3.55,3.92,3.72a65.41,65.41,0,0,0,9.3-.36A4,4,0,0,1,97.78,108.77Z"/><path class="cls-19" d="M177.43,108.83c-5.74-1-15.41-1.48-24.63-1.78-1.93-.06-4.17,0-6.5.16,7.75.3,15.32.75,20.13,1.62,5.74,1,18.88,3.13,18.88,3.13s8.37,1.46,11.12.39a5.5,5.5,0,0,0,.6-.28l-.72-.11S183.17,109.86,177.43,108.83Z"/><path class="cls-19" d="M199.87,109.32a30.75,30.75,0,0,0,0-3.83c-.17-1.64-.69-5-.69-5A176.1,176.1,0,0,0,167,95.47c-7.56-.44-13.43-.71-18.48-.82-2,0-4,.13-6.1.24-9.86.51-20.45,1.3-29.84,3.09s-14.19,2.24-14.19,2.24a27,27,0,0,1-.4,4.36,10.3,10.3,0,0,0-.24,4.19,4,4,0,0,0,2.22,3.36,33.09,33.09,0,0,0,3.47-.53c3.24-.73,13.06-2.17,13.06-2.17s16.06-2.67,25.27-2.38l4.5.16c2.33-.15,4.57-.22,6.5-.16,9.22.3,18.89.74,24.63,1.78S196.31,112,196.31,112l.72.11A5.64,5.64,0,0,0,199.87,109.32Z"/><path class="cls-19" d="M190.37,53.76a51,51,0,0,1,4.12,9.43,54.27,54.27,0,0,1,2,9.12,107.22,107.22,0,0,1,1.1,17.28s1.07,12.42,1.91,13.29-.95,3-.95,3,5.62,2.77,7,2.09,2.25.86,1-7.76-2.48-16-2.48-16L201.68,73s-3.94-9.85-4.79-11.16c-2.58-4-3-6.07-5.4-7.49A11.35,11.35,0,0,0,190.37,53.76Z"/><path class="cls-22" d="M158.21,50.63c-.12-.08-.54.39-1.42,1a12,12,0,0,1-1.26.82c-.67.42-3.11,3.52-8.57,11.19l-1.09-.81-.43.57-1-.74L131.27,80.37a1.19,1.19,0,0,0,.25,1.66l4,3a1.19,1.19,0,0,0,1.66-.24L150.35,67.1l-.92-.68.43-.58L148.73,65c5.89-7.61,8.32-11,8.53-11.68,0-.09.15-.55.39-1.19C158,51.17,158.31,50.71,158.21,50.63Z"/><path class="cls-23" d="M158,80.37,144.82,62.7l-1,.74-.43-.57-1.09.81c-3.54-5-5.81-8-7.16-9.67l.71-.52-.44-4.13-3.81-1.69v0l2.31,3.1-1.31,1-.88.66-1.14.85-2.32-3.1.44,4.09L132.5,56l.79-.57c1.28,1.83,3.6,4.92,7.24,9.63l-1.12.83.42.58-.91.68,13.17,17.67a1.19,1.19,0,0,0,1.66.24l4-3A1.19,1.19,0,0,0,158,80.37Z"/></g></g></svg>