<?xml version="1.0" encoding="utf-8"?>
<!-- Generator: Adobe Illustrator 16.0.3, SVG Export Plug-In . SVG Version: 6.00 Build 0)  -->
<!DOCTYPE svg PUBLIC "-//W3C//DTD SVG 1.1//EN" "http://www.w3.org/Graphics/SVG/1.1/DTD/svg11.dtd">
<svg version="1.1" xmlns="http://www.w3.org/2000/svg" xmlns:xlink="http://www.w3.org/1999/xlink" x="0px" y="0px" width="792px"
	 height="612px" viewBox="0 0 792 612" enable-background="new 0 0 792 612" xml:space="preserve">
<g id="atras">
	<g>
		<g>
			<g>
				<rect x="162.667" y="50.667" fill="#4D5454" width="69.667" height="51"/>
			</g>
		</g>
		<g>
			<g>
				
					<rect x="184.951" y="90.82" transform="matrix(0.7004 0.7138 -0.7138 0.7004 152.9746 -131.7776)" fill="#4D5454" width="96.993" height="51"/>
			</g>
		</g>
		<g>
			<title>Recurso 5</title>
			<g id="Capa_2">
				<g id="Layer_1">
					<g>
						<g>
							<path fill="#4D5454" d="M124.864,564.826l19.898-13.971l24.736-17.479l-5.443-60.479l-54.977-25.463L74,472.171
								c3.931-99.369,90.72-63.323,133.057-93.02l166.018-145.152l76.083-70.822c24.193-23.769,16.572-73.483,43.244-101.788
								c30.24-31.813,66.529-27.579,102.816-14.576L575.32,60.783l-24.857,17.721l5.443,60.48l55.037,25.522l35.018-24.676
								c-3.869,99.369-90.719,63.323-132.754,93.019L347.25,378.003l-76.688,70.459c-23.648,23.769-16.33,73.423-43.002,101.789
								c-30.24,31.873-66.528,27.639-102.816,14.636L124.864,564.826z"/>
						</g>
						<g>
							<path d="M172.112,585.629c-15.073,0-31.304-3.301-51.08-10.387c-4.147-1.486-7.007-5.303-7.27-9.7
								c-0.243-4.072,1.786-7.915,5.217-10.024l19.462-13.665l19.533-13.803l-4.305-47.841l-43.446-20.123L80.339,481.16
								c-3.422,2.412-7.917,2.672-11.594,0.675c-3.678-2.001-5.902-5.915-5.736-10.099c3.001-75.876,51.723-82.797,90.872-88.358
								c17.822-2.531,34.667-4.924,46.406-12.919l165.417-144.626l75.842-70.598c9.533-9.449,13.332-25.616,17.353-42.729
								c4.637-19.733,9.892-42.1,25.498-58.662c17.533-18.445,38.861-27.779,63.425-27.779c15.083,0,31.323,3.302,51.108,10.392
								c3.868,1.386,6.642,4.813,7.19,8.885c0.549,4.072-1.218,8.111-4.58,10.473l-19.899,13.971L561.984,83.8l4.309,47.876
								l43.511,20.177l29.821-21.014c3.419-2.411,7.911-2.673,11.59-0.672c3.677,1.999,5.9,5.911,5.738,10.092
								c-2.954,75.866-51.63,82.794-90.741,88.361c-17.776,2.53-34.581,4.922-46.219,12.908L354.592,386.195l-76.393,70.187
								c-9.209,9.396-12.973,25.392-16.957,42.321c-4.675,19.87-9.975,42.391-25.67,59.083
								C218.033,576.273,196.693,585.629,172.112,585.629z M149.642,560.87c8.161,1.863,15.534,2.759,22.471,2.759
								c18.566,0,34.093-6.853,47.467-20.949c11.624-12.362,16.008-30.996,20.249-49.016c4.531-19.258,9.217-39.172,22.936-52.961
								c0.116-0.116,0.234-0.23,0.355-0.342l76.688-70.459c0.066-0.061,0.133-0.12,0.201-0.18L505.965,224.57
								c0.286-0.25,0.585-0.485,0.896-0.705c15.989-11.295,36.457-14.208,56.251-17.026c32.629-4.644,59.505-8.468,68.642-43.54
								l-14.474,10.199c-3.214,2.265-7.394,2.642-10.964,0.987l-55.037-25.522c-3.563-1.652-5.976-5.08-6.328-8.993l-5.443-60.48
								c-0.35-3.891,1.39-7.675,4.57-9.943l26.27-18.712c-8.181-1.871-15.572-2.77-22.525-2.77
								c-18.557,0-34.076,6.837-47.446,20.902c-11.521,12.226-15.668,29.88-20.06,48.571c-4.573,19.462-9.302,39.587-23.448,53.485
								c-0.07,0.069-0.142,0.138-0.214,0.205l-76.084,70.822c-0.083,0.078-0.168,0.154-0.254,0.229L214.297,387.433
								c-0.294,0.258-0.603,0.499-0.923,0.725c-16.073,11.274-36.574,14.187-56.398,17.002c-32.661,4.64-59.566,8.462-68.742,43.515
								l14.506-10.229c3.213-2.268,7.394-2.646,10.962-0.992l54.977,25.463c3.566,1.652,5.98,5.081,6.333,8.995l5.443,60.479
								c0.352,3.907-1.404,7.706-4.607,9.97L149.642,560.87z"/>
						</g>
					</g>
					<g>
						<g>
							<path fill="#4D5454" d="M257.134,170.857l35.502-35.563l89.874,89.874l-9.737,9.072l-27.881,24.191L257.134,170.857z
								 M447.404,290.186l55.521,55.521c-6.047,5.08-12.096,10.826-18.145,17.116c-6.047,6.29-12.096,12.459-17.055,18.144
								l-58.061-57.818L447.404,290.186z M716.846,492.492L549.193,324.72c-7.5-7.439-36.289,9.495-64.834,37.8
								c-28.547,28.305-45.301,57.335-37.861,64.835l0,0l167.65,167.651l0,0c7.439,7.439,36.289-9.495,64.775-37.8
								s45.299-57.396,37.861-64.835L716.846,492.492z M260.279,167.652l-72.577-15.725l-50.864-71.73l32.599-32.599
								 M289.491,138.319L273.766,65.44L202.037,15l-32.599,32.599"/>
						</g>
						<g>
							<path d="M619.182,607.801c-4.639,0-9.137-1.342-12.812-5.017L438.72,435.133c-7.689-7.752-6.432-20.502,3.706-37.926
								c2.876-4.942,6.394-10.167,10.433-15.523l-50.954-50.742c-2.161-2.151-3.332-5.104-3.232-8.153s1.461-5.919,3.758-7.926
								l37.738-32.961c4.36-3.807,10.923-3.585,15.015,0.506l48.573,48.572c18.688-14.128,41.116-26.041,53.185-14.069
								l166.907,167.027c0.246,0.206,0.485,0.425,0.716,0.656c2.278,2.278,4.991,6.375,4.98,12.957
								c-0.029,18.362-22.163,46.887-42.867,67.458c-14.444,14.353-29.531,26.427-42.481,33.997
								C639.764,601.597,629.151,607.8,619.182,607.801z M455.805,421.104l164.572,164.574c6.567-1.039,26.06-11.699,50.794-36.275
								c24.314-24.16,35.21-44.113,36.289-50.741l-164.5-164.618c-4.813,0.752-16.654,6.728-32.471,19.649
								c-0.158,0.149-0.32,0.294-0.488,0.435c-5.521,4.64-11.34,10.13-17.291,16.319l-2.911,3.021
								c-5.039,5.226-9.799,10.161-13.783,14.729c-0.407,0.466-0.85,0.895-1.322,1.281
								C462.358,404.698,456.522,416.386,455.805,421.104z M425.784,323.675l41.219,41.047c3.063-3.357,6.276-6.707,9.611-10.014
								c2.462-2.44,5.959-5.813,10.155-9.603l-39.873-39.872L425.784,323.675z M344.893,269.433c-2.82,0-5.633-1.079-7.772-3.214
								l-87.757-87.575c-0.75-0.749-1.382-1.595-1.881-2.508l-62.109-13.457c-2.685-0.582-5.055-2.147-6.644-4.388l-50.864-71.73
								c-3.102-4.375-2.597-10.349,1.195-14.141l65.198-65.197c3.781-3.78,9.732-4.295,14.106-1.22l71.729,50.44
								c2.262,1.591,3.842,3.975,4.425,6.678l13.504,62.583c0.869,0.488,1.675,1.096,2.392,1.813l89.874,89.874
								c2.11,2.111,3.272,4.988,3.22,7.973c-0.052,2.984-1.316,5.819-3.5,7.854l-9.737,9.072c-0.095,0.088-0.191,0.175-0.29,0.26
								L352.1,266.741C350.025,268.542,347.456,269.433,344.893,269.433z M272.692,170.843l72.723,72.572l20.002-17.355l1.257-1.171
								l-74.03-74.031L272.692,170.843z M194.206,142.082l62.578,13.558l20.715-20.75L263.92,71.964l-60.646-42.646l-52.092,52.091
								L194.206,142.082z"/>
						</g>
					</g>
				</g>
			</g>
		</g>
	</g>
</g>
<g id="coche">
	<g>
		<g>
			<g>
				<g>
					<rect x="342.446" y="332.777" fill="#15A5C4" width="208.801" height="41.945"/>
				</g>
			</g>
			<g>
				<g>
					<g>
						<path fill="#15A5C4" d="M601.877,348.678c0,0,4.563-43.812-20.419-48.438c-24.981-4.626-45.877-15.074-56.633-19.238
							c-10.757-4.164-31.112-78.069-79.997-78.069c-48.884,0-121.518-14.65-149.893,30.225s-22.36,47.343-35.776,51.044
							c-13.417,3.701-54.746,13.416-63.381,21.281c-8.635,7.864-8.327,14.342-7.865,22.053c0.463,7.709-1.451,19.922-1.913,21.465
							c-0.463,1.543-6.989,0.5-9.614,3.375c-1.872,2.05-0.109,29.195,8.989,28.58c9.099-0.617,35.271,0.975,37.544,1.334
							c7.71,1.225,8.328,0.363,6.323-0.473c-0.712-0.295,2.87,1.084,2.87,1.084"/>
					</g>
					<g>
						<path d="M228.314,390.379c-2.272,0-4.604-0.37-6.572-0.683c-2.604-0.341-27.685-1.808-35.86-1.259
							c-3.217,0.227-9.217-0.687-13.313-9.184c-3.078-6.384-7.104-26.042-1.722-31.936c2.52-2.76,5.872-3.798,8.585-4.308
							c0.583-4.182,1.26-10.61,0.995-15.026c-0.473-7.886-1.062-17.7,10.301-28.048c7.966-7.255,32.094-13.977,58.238-20.795
							c3.272-0.854,6.085-1.587,8.198-2.17c5.064-1.397,5.064-1.397,10.45-11.593c3.89-7.365,9.77-18.496,20.982-36.229
							c25.333-40.063,81.519-37.136,126.669-34.784c10.529,0.549,20.475,1.067,29.563,1.067c38.952,0,60.966,39.976,74.118,63.86
							c3.231,5.868,7.225,13.121,9.11,14.918c2.217,0.872,4.742,1.946,7.633,3.174c11.203,4.763,28.135,11.961,47.135,15.479
							c9.468,1.753,21.595,8.738,25.604,32.058c2.132,12.408,0.96,24.043,0.909,24.532l-14.92-1.555l7.46,0.777l-7.461-0.768
							c0.038-0.37,3.267-37.039-14.323-40.296c-20.621-3.819-38.465-11.405-50.272-16.425c-2.999-1.275-5.59-2.376-7.703-3.194
							c-5.706-2.208-9.473-9.049-16.311-21.467c-12.301-22.338-30.89-56.096-60.979-56.096c-9.479,0-19.613-0.528-30.343-1.087
							c-43.389-2.262-92.57-4.823-113.21,27.82c-10.901,17.239-16.615,28.059-20.397,35.218
							c-6.122,11.59-8.412,15.927-19.724,19.047c-2.166,0.597-5.049,1.35-8.402,2.224c-12.59,3.284-46.033,12.006-51.924,17.372
							c-6.06,5.519-5.849,9.041-5.428,16.059c0.507,8.435-1.431,21.451-2.215,24.067c-1.589,5.297-6.856,6.014-9.387,6.357
							c-0.185,0.025-0.399,0.055-0.624,0.087c0.071,4.818,1.433,12.927,3.202,15.795c10.562-0.413,34.694,1.011,37.715,1.488
							c0.606,0.097,1.142,0.175,1.612,0.239c1.697-0.891,3.911-1.19,6.558-0.192l2.546,0.974l-0.169,0.438
							c3.258,2.555,3.374,6.217,2.791,8.274C236.118,389.233,232.31,390.379,228.314,390.379z"/>
					</g>
				</g>
				<g>
					<g>
						<circle fill="#15A5C4" cx="265.574" cy="377.648" r="33.463"/>
					</g>
					<g>
						<path d="M265.574,418.611c-22.587,0-40.963-18.376-40.963-40.963s18.376-40.963,40.963-40.963
							c22.587,0,40.963,18.376,40.963,40.963S288.162,418.611,265.574,418.611z M265.574,351.686
							c-14.316,0-25.963,11.646-25.963,25.963s11.647,25.963,25.963,25.963c14.316,0,25.963-11.646,25.963-25.963
							S279.891,351.686,265.574,351.686z"/>
					</g>
				</g>
				<g>
					<g>
						<circle fill="#15A5C4" cx="486.92" cy="377.648" r="33.463"/>
					</g>
					<g>
						<path d="M486.921,418.611c-22.588,0-40.964-18.376-40.964-40.963s18.376-40.963,40.964-40.963
							c22.587,0,40.963,18.376,40.963,40.963S509.508,418.611,486.921,418.611z M486.921,351.686
							c-14.316,0-25.964,11.646-25.964,25.963s11.647,25.963,25.964,25.963s25.963-11.646,25.963-25.963
							S501.237,351.686,486.921,351.686z"/>
					</g>
				</g>
				<g>
					<g>
						<line fill="#15A5C4" x1="299.038" y1="377.648" x2="453.457" y2="377.648"/>
					</g>
					<g>
						<rect x="299.038" y="370.148" width="154.419" height="15"/>
					</g>
				</g>
				<g>
					<g>
						<path fill="#15A5C4" d="M520.384,377.648h18.204c0,0-0.001,5.709,3.547,6.48c3.547,0.771,59.063-0.615,61.992-1.232
							c2.931-0.617,8.791-35.623,2.16-34.697c-6.632,0.924-33.463,2.467-48.114,6.014c-14.65,3.547-21.435,2.467-22.669,6.014
							s3.008,17.041,3.008,17.041"/>
					</g>
					<g>
						<path d="M552.221,391.835c-6.017,0-10.447-0.109-11.68-0.377c-3.71-0.807-6.255-3.265-7.762-6.31h-12.396
							c-4.143,0-7.5-3.357-7.5-7.5s3.357-7.5,7.5-7.5h8.448c-1.796-8.407-0.8-11.271-0.411-12.387
							c2.244-6.451,8.466-7.395,15.053-8.394c3.387-0.514,7.602-1.153,12.935-2.444c11.125-2.693,28.326-4.233,39.709-5.253
							c4.012-0.358,7.477-0.669,9.135-0.9c0.938-0.128,9.233-0.974,11.121,9.824c1.201,6.868-0.285,17.108-0.98,21.192
							c-2.163,12.719-4.616,17.374-9.72,18.448C602.765,390.848,570.319,391.835,552.221,391.835z M546.067,376.845
							c10.192,0.186,41.988-0.566,53.222-1.109c1.343-4.978,2.599-14.131,2.57-19.523c-1.329,0.124-2.806,0.257-4.404,0.399
							c-10.941,0.979-27.475,2.46-37.518,4.891c-5.968,1.445-10.733,2.168-14.214,2.696c-0.885,0.134-1.819,0.275-2.658,0.416
							c0.47,2.712,1.452,6.729,2.56,10.271C545.862,375.508,546.012,376.165,546.067,376.845z"/>
					</g>
				</g>
			</g>
		</g>
		<g>
			<g>
				<path fill="#FFFFFF" d="M403.758,222.939V283h83.162c0,0-26.566-60.253-44.469-60.061
					C424.548,223.132,403.758,222.939,403.758,222.939z"/>
			</g>
			<g>
				<path d="M486.939,288c-0.006,0-0.014,0-0.02,0h-83.162c-2.762,0-5-2.239-5-5v-60.061c0-1.334,0.533-2.613,1.48-3.552
					c0.938-0.928,2.202-1.448,3.52-1.448c0.016,0,0.031,0,0.046,0c0.093,0.001,9.351,0.085,20.659,0.085
					c6.639,0,12.673-0.029,17.935-0.085c0.018,0,0.122-0.001,0.14-0.001c6.028,0,16.03,3.368,33.211,32.49
					c8.201,13.902,14.419,27.583,15.565,30.146c0.399,0.718,0.626,1.545,0.626,2.425C491.939,285.761,489.701,288,486.939,288z
					 M408.758,278h70.372c-11.993-25.249-28.324-50.061-36.593-50.061c-5.33,0.057-11.4,0.086-18.074,0.086
					c-6.259,0-11.893-0.026-15.705-0.049V278z"/>
			</g>
		</g>
		<g>
			<g>
				<path fill="#FFFFFF" d="M383.5,222.772v60.395h-79.541c0,0,15.116-54.269,46.388-60.395H383.5z"/>
			</g>
			<g>
				<path d="M383.5,288.167h-79.541c-1.563,0-3.036-0.731-3.982-1.976c-0.945-1.245-1.254-2.86-0.834-4.366
					c0.651-2.337,16.333-57.317,50.243-63.959c0.317-0.062,0.639-0.093,0.961-0.093H383.5c2.761,0,5,2.239,5,5v60.395
					C388.5,285.928,386.261,288.167,383.5,288.167z M310.84,278.167h67.66v-50.395h-27.646
					C329.192,232.42,315.716,264.353,310.84,278.167z"/>
			</g>
		</g>
		<g>
			<g>
				<path d="M400.833,366c-1.381,0-2.5-1.119-2.5-2.5v-67c0-1.381,1.119-2.5,2.5-2.5s2.5,1.119,2.5,2.5v67
					C403.333,364.881,402.214,366,400.833,366z"/>
			</g>
		</g>
		<g>
			<g>
				<path d="M384.333,299.833h-28c-1.381,0-2.5-1.119-2.5-2.5s1.119-2.5,2.5-2.5h28c1.381,0,2.5,1.119,2.5,2.5
					S385.714,299.833,384.333,299.833z"/>
			</g>
		</g>
		<g>
			<g>
				<path d="M492.125,299.833H460.75c-1.381,0-2.5-1.119-2.5-2.5s1.119-2.5,2.5-2.5h31.375c1.381,0,2.5,1.119,2.5,2.5
					S493.506,299.833,492.125,299.833z"/>
			</g>
		</g>
		<g>
			<g>
				<path fill="#15A5C4" d="M212.136,352.501c-1.398,0.21-35.75-1.25-35.75-1.25s1.738,28.934,12.244,29.467s26.756,0,26.756,0
					S217.136,351.751,212.136,352.501z"/>
			</g>
			<g>
				<path d="M200.237,388.455h-0.001c-4.729,0-8.762-0.083-11.986-0.247c-8.077-0.41-13.789-7.366-16.975-20.678
					c-1.879-7.85-2.356-15.508-2.375-15.829c-0.127-2.119,0.649-4.192,2.137-5.707c1.488-1.514,3.556-2.334,5.668-2.236
					c10.286,0.438,30.781,1.264,34.726,1.264l0.126-0.001c2.709-0.233,5.32,0.785,7.227,2.811c1.568,1.666,5.735,6.091,4.089,33.339
					c-0.233,3.865-3.371,6.917-7.24,7.044C215.332,388.224,208.196,388.455,200.237,388.455z M189.547,373.254
					c2.885,0.133,6.477,0.201,10.688,0.201c2.826,0,5.576-0.031,7.928-0.07c0.094-5.336-0.07-10.309-0.444-13.436
					c-5.705-0.159-15.641-0.548-22.87-0.841C185.994,365.802,187.855,371.649,189.547,373.254z"/>
			</g>
		</g>
		<g>
			<g>
				<ellipse fill="#FFFFFF" cx="215.682" cy="323.576" rx="11.715" ry="14.831"/>
			</g>
			<g>
				<path d="M215.682,340.907c-7.838,0-14.215-7.774-14.215-17.331s6.377-17.331,14.215-17.331c7.838,0,14.215,7.774,14.215,17.331
					S223.521,340.907,215.682,340.907z M215.682,311.245c-5.081,0-9.215,5.531-9.215,12.331s4.134,12.331,9.215,12.331
					c5.082,0,9.215-5.531,9.215-12.331S220.764,311.245,215.682,311.245z"/>
			</g>
		</g>
	</g>
</g>
<g id="letras">
	<g>
		<path d="M324.542,508.318l-9.189,1.685c0.4-1.816,0.6-3.336,0.6-4.559c0-7.86-4.812-11.791-14.433-11.791
			c-7.591,0-11.386,2.708-11.386,8.125c0,4.063,4.245,7.548,12.734,10.453c16.38,5.583,24.57,13.84,24.57,24.772
			c0,6.408-2.297,11.552-6.892,15.433c-4.594,3.882-10.704,5.821-18.328,5.821c-16.88,0-25.32-6.49-25.32-19.471
			c0-1.057,0.083-2.36,0.25-3.914l9.539-2.08c-0.733,2.873-1.099,5.367-1.099,7.48c0,8.391,4.844,12.584,14.532,12.584
			c7.757,0,11.636-3.021,11.636-9.066c0-4.491-4.644-8.438-13.933-11.841c-13.417-4.888-20.125-12.699-20.125-23.434
			c0-6.077,2.239-10.975,6.717-14.69c4.478-3.716,10.362-5.573,17.654-5.573C317.051,488.253,324.542,494.941,324.542,508.318z"/>
		<path d="M380.275,489.393v6.787h-24.42v20.462h20.525v6.787h-20.525v26.804h28.565v6.787h-48.342v-67.627H380.275z"/>
		<path d="M417.28,520.506h28.065v36.514h-6.292l-2.147-4.657c-5.493,3.864-11.304,5.797-17.429,5.797
			c-10.088,0-17.921-2.997-23.497-8.992c-5.577-5.995-8.365-14.442-8.365-25.342c0-10.603,2.954-19.182,8.865-25.738
			c5.909-6.556,13.641-9.834,23.196-9.834c12.585,0,20.242,6.375,22.973,19.124l-9.289,4.211v-1.635l-0.149-3.666
			c-0.633-7.96-4.345-11.94-11.137-11.94c-4.994,0-8.407,2.114-10.237,6.342c-1.832,4.228-2.747,12.105-2.747,23.632
			c0,10.769,0.74,18.084,2.223,21.948c1.48,3.864,4.302,5.797,8.465,5.797c4.894,0,7.341-2.708,7.341-8.125v-16.647h-9.838V520.506z
			"/>
		<path d="M486.047,489.393l18.978,67.627h-19.876l-4.046-14.665h-20.524l-4.346,14.665h-7.74l20.176-67.627H486.047z
			 M462.525,535.567h16.729l-8.04-29.975L462.525,535.567z"/>
	</g>
</g>
</svg>
