<?xml version="1.0" encoding="utf-8"?>
<!-- Generator: Adobe Illustrator 22.0.0, SVG Export Plug-In . SVG Version: 6.00 Build 0)  -->
<svg version="1.1" id="Capa_1" xmlns="http://www.w3.org/2000/svg" xmlns:xlink="http://www.w3.org/1999/xlink" x="0px" y="0px"
	 viewBox="0 0 792 612" style="enable-background:new 0 0 792 612;" xml:space="preserve">
<style type="text/css">
	.st0{fill:#4D5454;}
	.st1{fill:#15A5C4;}
	.st2{fill:none;}
	.st3{fill:#FFFFFF;}
</style>
<g>
	<g>
		<g>
			<g>
				<g>
					<rect x="256.5" y="206" class="st0" width="42.7" height="31.3"/>
				</g>
			</g>
			<g>
				<g>
					
						<rect x="284.2" y="216.6" transform="matrix(0.7138 -0.7004 0.7004 0.7138 -86.6643 280.5288)" class="st0" width="31.3" height="59.5"/>
				</g>
			</g>
			<g>
				<title>Recurso 5</title>
				<g id="Capa_2_1_">
					<g id="Layer_1">
						<g>
							<g>
								<path class="st0" d="M233.3,521.3l12.2-8.6l15.2-10.7l-3.3-37.1l-33.7-15.6l-21.5,15.2c2.4-60.9,55.6-38.8,81.6-57l101.8-89
									l46.7-43.4c14.8-14.6,10.2-45.1,26.5-62.4c18.5-19.5,40.8-16.9,63-8.9l-12.2,8.6l-15.2,10.9l3.3,37.1l33.7,15.6l21.5-15.1
									c-2.4,60.9-55.6,38.8-81.4,57l-101.8,89l-47,43.2c-14.5,14.6-10,45-26.4,62.4C277.7,531.9,255.5,529.3,233.3,521.3
									L233.3,521.3z"/>
							</g>
							<g>
								<path d="M262.3,534.1c-9.2,0-19.2-2-31.3-6.4c-2.5-0.9-4.3-3.3-4.5-5.9c-0.1-2.5,1.1-4.9,3.2-6.1l11.9-8.4l12-8.5l-2.6-29.3
									l-26.6-12.3L206,470c-2.1,1.5-4.9,1.6-7.1,0.4c-2.3-1.2-3.6-3.6-3.5-6.2c1.8-46.5,31.7-50.8,55.7-54.2
									c10.9-1.6,21.3-3,28.5-7.9L381,313.4l46.5-43.3c5.8-5.8,8.2-15.7,10.6-26.2c2.8-12.1,6.1-25.8,15.6-36
									c10.8-11.3,23.8-17,38.9-17c9.2,0,19.2,2,31.3,6.4c2.4,0.8,4.1,3,4.4,5.4c0.3,2.5-0.7,5-2.8,6.4l-12.2,8.6l-12.1,8.6
									l2.6,29.4l26.7,12.4l18.3-12.9c2.1-1.5,4.9-1.6,7.1-0.4c2.3,1.2,3.6,3.6,3.5,6.2c-1.8,46.5-31.7,50.8-55.6,54.2
									c-10.9,1.6-21.2,3-28.3,7.9l-101.4,88.7l-46.8,43c-5.6,5.8-8,15.6-10.4,26c-2.9,12.2-6.1,26-15.7,36.2
									C290.4,528.3,277.3,534.1,262.3,534.1z M248.5,518.9c5,1.1,9.5,1.7,13.8,1.7c11.4,0,20.9-4.2,29.1-12.8
									c7.1-7.6,9.8-19,12.4-30.1c2.8-11.8,5.7-24,14.1-32.5c0.1-0.1,0.1-0.1,0.2-0.2l47-43.2c0,0,0.1-0.1,0.1-0.1l101.8-89
									c0.2-0.2,0.4-0.3,0.5-0.4c9.8-6.9,22.4-8.7,34.5-10.4c20-2.8,36.5-5.2,42.1-26.7l-8.9,6.3c-2,1.4-4.5,1.6-6.7,0.6
									l-33.7-15.6c-2.2-1-3.7-3.1-3.9-5.5l-3.3-37.1c-0.2-2.4,0.9-4.7,2.8-6.1l16.1-11.5c-5-1.1-9.5-1.7-13.8-1.7
									c-11.4,0-20.9,4.2-29.1,12.8c-7.1,7.5-9.6,18.3-12.3,29.8c-2.8,11.9-5.7,24.3-14.4,32.8c0,0-0.1,0.1-0.1,0.1l-46.7,43.4
									c-0.1,0-0.1,0.1-0.2,0.1l-101.8,89c-0.2,0.2-0.4,0.3-0.6,0.4c-9.9,6.9-22.4,8.7-34.6,10.4c-20,2.8-36.5,5.2-42.2,26.7
									l8.9-6.3c2-1.4,4.5-1.6,6.7-0.6l33.7,15.6c2.2,1,3.7,3.1,3.9,5.5l3.3,37.1c0.2,2.4-0.9,4.7-2.8,6.1L248.5,518.9z"/>
							</g>
						</g>
						<g>
							<g>
								<path class="st0" d="M314.4,279.7l21.8-21.8l55.1,55.1l-6,5.6l-17.1,14.8L314.4,279.7z M431.1,352.9l34,34
									c-3.7,3.1-7.4,6.6-11.1,10.5c-3.7,3.9-7.4,7.6-10.5,11.1l-35.6-35.5L431.1,352.9z M596.3,477L493.5,374.1
									c-4.6-4.6-22.3,5.8-39.8,23.2c-17.5,17.4-27.8,35.2-23.2,39.8l0,0l102.8,102.8l0,0c4.6,4.6,22.3-5.8,39.7-23.2
									C590.5,499.3,600.8,481.4,596.3,477L596.3,477z M316.3,277.8l-44.5-9.6l-31.2-44l20-20 M334.2,259.8l-9.6-44.7l-44-30.9
									l-20,20"/>
							</g>
							<g>
								<path d="M536.4,547.7c-2.8,0-5.6-0.8-7.9-3.1L425.8,441.8c-4.7-4.8-3.9-12.6,2.3-23.3c1.8-3,3.9-6.2,6.4-9.5l-31.2-31.1
									c-1.3-1.3-2-3.1-2-5c0.1-1.9,0.9-3.6,2.3-4.9l23.1-20.2c2.7-2.3,6.7-2.2,9.2,0.3l29.8,29.8c11.5-8.7,25.2-16,32.6-8.6
									l102.3,102.4c0.2,0.1,0.3,0.3,0.4,0.4c1.4,1.4,3.1,3.9,3.1,7.9c0,11.3-13.6,28.8-26.3,41.4c-8.9,8.8-18.1,16.2-26,20.8
									C549,543.9,542.5,547.7,536.4,547.7z M436.2,433.2l100.9,100.9c4-0.6,16-7.2,31.1-22.2c14.9-14.8,21.6-27,22.3-31.1
									L489.7,379.8c-3,0.5-10.2,4.1-19.9,12c-0.1,0.1-0.2,0.2-0.3,0.3c-3.4,2.8-7,6.2-10.6,10l-1.8,1.9c-3.1,3.2-6,6.2-8.5,9
									c-0.2,0.3-0.5,0.5-0.8,0.8C440.2,423.1,436.7,430.3,436.2,433.2z M417.8,373.4l25.3,25.2c1.9-2.1,3.8-4.1,5.9-6.1
									c1.5-1.5,3.7-3.6,6.2-5.9l-24.4-24.4L417.8,373.4z M368.2,340.2c-1.7,0-3.5-0.7-4.8-2l-53.8-53.7c-0.5-0.5-0.8-1-1.2-1.5
									l-38.1-8.3c-1.6-0.4-3.1-1.3-4.1-2.7l-31.2-44c-1.9-2.7-1.6-6.3,0.7-8.7l40-40c2.3-2.3,6-2.6,8.6-0.7l44,30.9
									c1.4,1,2.4,2.4,2.7,4.1l8.3,38.4c0.5,0.3,1,0.7,1.5,1.1l55.1,55.1c1.3,1.3,2,3.1,2,4.9c0,1.8-0.8,3.6-2.1,4.8l-6,5.6
									c-0.1,0.1-0.1,0.1-0.2,0.2l-17.1,14.8C371.4,339.6,369.8,340.2,368.2,340.2z M323.9,279.7l44.6,44.5l12.3-10.6l0.8-0.7
									l-45.4-45.4L323.9,279.7z M275.8,262.1l38.4,8.3l12.7-12.7l-8.3-38.6l-37.2-26.1l-31.9,31.9L275.8,262.1z"/>
							</g>
						</g>
					</g>
				</g>
			</g>
		</g>
		<g>
			<g>
				<g>
					<g>
						<rect x="366.7" y="379" class="st1" width="128" height="25.7"/>
					</g>
				</g>
				<g>
					<g>
						<g>
							<path class="st1" d="M525.8,388.8c0,0,2.8-26.9-12.5-29.7c-15.3-2.8-28.1-9.2-34.7-11.8c-6.6-2.6-19.1-47.9-49.1-47.9
								c-30,0-74.5-9-91.9,18.5s-13.7,29-21.9,31.3c-8.2,2.3-33.6,8.2-38.9,13c-5.3,4.8-5.1,8.8-4.8,13.5c0.3,4.7-0.9,12.2-1.2,13.2
								c-0.3,0.9-4.3,0.3-5.9,2.1c-1.1,1.3-0.1,17.9,5.5,17.5c5.6-0.4,21.6,0.6,23,0.8c4.7,0.8,5.1,0.2,3.9-0.3
								c-0.4-0.2,1.8,0.7,1.8,0.7"/>
						</g>
						<g>
							<path d="M296.7,414.3c-1.4,0-2.8-0.2-4-0.4c-1.6-0.2-17-1.1-22-0.8c-2,0.1-5.7-0.4-8.2-5.6c-1.9-3.9-4.4-16-1.1-19.6
								c1.5-1.7,3.6-2.3,5.3-2.6c0.4-2.6,0.8-6.5,0.6-9.2c-0.3-4.8-0.7-10.9,6.3-17.2c4.9-4.4,19.7-8.6,35.7-12.8c2-0.5,3.7-1,5-1.3
								c3.1-0.9,3.1-0.9,6.4-7.1c2.4-4.5,6-11.3,12.9-22.2c15.5-24.6,50-22.8,77.7-21.3c6.5,0.3,12.6,0.7,18.1,0.7
								c23.9,0,37.4,24.5,45.4,39.2c2,3.6,4.4,8,5.6,9.1c1.4,0.5,2.9,1.2,4.7,1.9c6.9,2.9,17.3,7.3,28.9,9.5
								c5.8,1.1,13.2,5.4,15.7,19.7c1.3,7.6,0.6,14.7,0.6,15l-9.1-1l4.6,0.5l-4.6-0.5c0-0.2,2-22.7-8.8-24.7
								c-12.6-2.3-23.6-7-30.8-10.1c-1.8-0.8-3.4-1.5-4.7-2c-3.5-1.4-5.8-5.5-10-13.2c-7.5-13.7-18.9-34.4-37.4-34.4
								c-5.8,0-12-0.3-18.6-0.7c-26.6-1.4-56.8-3-69.4,17.1c-6.7,10.6-10.2,17.2-12.5,21.6c-3.8,7.1-5.2,9.8-12.1,11.7
								c-1.3,0.4-3.1,0.8-5.2,1.4c-7.7,2-28.2,7.4-31.8,10.7c-3.7,3.4-3.6,5.5-3.3,9.8c0.3,5.2-0.9,13.2-1.4,14.8
								c-1,3.2-4.2,3.7-5.8,3.9c-0.1,0-0.2,0-0.4,0.1c0,3,0.9,7.9,2,9.7c6.5-0.3,21.3,0.6,23.1,0.9c0.4,0.1,0.7,0.1,1,0.1
								c1-0.5,2.4-0.7,4-0.1l1.6,0.6l-0.1,0.3c2,1.6,2.1,3.8,1.7,5.1C301.5,413.6,299.2,414.3,296.7,414.3z"/>
						</g>
					</g>
					<g>
						<g>
							<circle class="st1" cx="319.6" cy="406.5" r="20.5"/>
						</g>
						<g>
							<path d="M319.6,431.7c-13.8,0-25.1-11.3-25.1-25.1c0-13.8,11.3-25.1,25.1-25.1c13.8,0,25.1,11.3,25.1,25.1
								C344.7,420.4,333.4,431.7,319.6,431.7z M319.6,390.6c-8.8,0-15.9,7.1-15.9,15.9c0,8.8,7.1,15.9,15.9,15.9
								c8.8,0,15.9-7.1,15.9-15.9C335.5,397.8,328.4,390.6,319.6,390.6z"/>
						</g>
					</g>
					<g>
						<g>
							
								<ellipse transform="matrix(0.1602 -0.9871 0.9871 0.1602 -18.9072 790.8427)" class="st1" cx="455.3" cy="406.5" rx="20.5" ry="20.5"/>
						</g>
						<g>
							<path d="M455.3,431.7c-13.9,0-25.1-11.3-25.1-25.1c0-13.8,11.3-25.1,25.1-25.1c13.8,0,25.1,11.3,25.1,25.1
								C480.4,420.4,469.2,431.7,455.3,431.7z M455.3,390.6c-8.8,0-15.9,7.1-15.9,15.9c0,8.8,7.1,15.9,15.9,15.9s15.9-7.1,15.9-15.9
								C471.2,397.8,464.1,390.6,455.3,390.6z"/>
						</g>
					</g>
					<g>
						<g>
							<line class="st2" x1="340.1" y1="406.5" x2="434.8" y2="406.5"/>
						</g>
						<g>
							<rect x="340.1" y="401.9" width="94.7" height="9.2"/>
						</g>
					</g>
					<g>
						<g>
							<path class="st1" d="M475.8,406.5H487c0,0,0,3.5,2.2,4c2.2,0.5,36.2-0.4,38-0.8c1.8-0.4,5.4-21.8,1.3-21.3
								c-4.1,0.6-20.5,1.5-29.5,3.7c-9,2.2-13.1,1.5-13.9,3.7c-0.8,2.2,1.8,10.4,1.8,10.4"/>
						</g>
						<g>
							<path d="M495.3,415.2c-3.7,0-6.4-0.1-7.2-0.2c-2.3-0.5-3.8-2-4.8-3.9h-7.6c-2.5,0-4.6-2.1-4.6-4.6c0-2.5,2.1-4.6,4.6-4.6h5.2
								c-1.1-5.2-0.5-6.9-0.3-7.6c1.4-4,5.2-4.5,9.2-5.1c2.1-0.3,4.7-0.7,7.9-1.5c6.8-1.7,17.4-2.6,24.3-3.2
								c2.5-0.2,4.6-0.4,5.6-0.6c0.6-0.1,5.7-0.6,6.8,6c0.7,4.2-0.2,10.5-0.6,13c-1.3,7.8-2.8,10.7-6,11.3
								C526.3,414.6,506.4,415.2,495.3,415.2z M491.6,406c6.2,0.1,25.7-0.3,32.6-0.7c0.8-3.1,1.6-8.7,1.6-12
								c-0.8,0.1-1.7,0.2-2.7,0.2c-6.7,0.6-16.8,1.5-23,3c-3.7,0.9-6.6,1.3-8.7,1.7c-0.5,0.1-1.1,0.2-1.6,0.3
								c0.3,1.7,0.9,4.1,1.6,6.3C491.5,405.2,491.5,405.6,491.6,406z"/>
						</g>
					</g>
				</g>
			</g>
			<g>
				<g>
					<path class="st3" d="M404.3,311.7v36.8h51c0,0-16.3-36.9-27.3-36.8C417.1,311.8,404.3,311.7,404.3,311.7z"/>
				</g>
				<g>
					<path d="M455.3,351.6C455.3,351.6,455.3,351.6,455.3,351.6h-51c-1.7,0-3.1-1.4-3.1-3.1v-36.8c0-0.8,0.3-1.6,0.9-2.2
						c0.6-0.6,1.4-0.9,2.2-0.9c0,0,0,0,0,0c0.1,0,5.7,0.1,12.7,0.1c4.1,0,7.8,0,11-0.1c0,0,0.1,0,0.1,0c3.7,0,9.8,2.1,20.4,19.9
						c5,8.5,8.8,16.9,9.5,18.5c0.2,0.4,0.4,0.9,0.4,1.5C458.4,350.2,457,351.6,455.3,351.6z M407.4,345.4h43.2
						c-7.4-15.5-17.4-30.7-22.4-30.7c-3.3,0-7,0.1-11.1,0.1c-3.8,0-7.3,0-9.6,0V345.4L407.4,345.4z"/>
				</g>
			</g>
			<g>
				<g>
					<path class="st3" d="M391.9,311.6v37h-48.8c0,0,9.3-33.3,28.4-37H391.9L391.9,311.6z"/>
				</g>
				<g>
					<path d="M391.9,351.7h-48.8c-1,0-1.9-0.4-2.4-1.2c-0.6-0.8-0.8-1.8-0.5-2.7c0.4-1.4,10-35.1,30.8-39.2c0.2,0,0.4-0.1,0.6-0.1
						h20.3c1.7,0,3.1,1.4,3.1,3.1v37C395,350.3,393.6,351.7,391.9,351.7z M347.3,345.5h41.5v-30.9h-17
						C358.6,317.5,350.3,337.1,347.3,345.5z"/>
				</g>
			</g>
			<g>
				<g>
					<path d="M402.5,399.4c-0.8,0-1.5-0.7-1.5-1.5v-41.1c0-0.8,0.7-1.5,1.5-1.5c0.8,0,1.5,0.7,1.5,1.5v41.1
						C404.1,398.7,403.4,399.4,402.5,399.4z"/>
				</g>
			</g>
			<g>
				<g>
					<path d="M392.4,358.8h-17.2c-0.8,0-1.5-0.7-1.5-1.5c0-0.8,0.7-1.5,1.5-1.5h17.2c0.8,0,1.5,0.7,1.5,1.5
						C393.9,358.1,393.3,358.8,392.4,358.8z"/>
				</g>
			</g>
			<g>
				<g>
					<path d="M458.5,358.8h-19.2c-0.8,0-1.5-0.7-1.5-1.5c0-0.8,0.7-1.5,1.5-1.5h19.2c0.8,0,1.5,0.7,1.5,1.5
						C460,358.1,459.3,358.8,458.5,358.8z"/>
				</g>
			</g>
			<g>
				<g>
					<path class="st1" d="M286.8,391.1c-0.9,0.1-21.9-0.8-21.9-0.8s1.1,17.7,7.5,18.1c6.4,0.3,16.4,0,16.4,0
						S289.9,390.7,286.8,391.1z"/>
				</g>
				<g>
					<path d="M279.5,413.2L279.5,413.2c-2.9,0-5.4-0.1-7.4-0.2c-5-0.3-8.5-4.5-10.4-12.7c-1.2-4.8-1.4-9.5-1.5-9.7
						c-0.1-1.3,0.4-2.6,1.3-3.5c0.9-0.9,2.2-1.4,3.5-1.4c6.3,0.3,18.9,0.8,21.3,0.8l0.1,0c1.7-0.1,3.3,0.5,4.4,1.7
						c1,1,3.5,3.7,2.5,20.4c-0.1,2.4-2.1,4.2-4.4,4.3C288.8,413,284.4,413.2,279.5,413.2z M273,403.8c1.8,0.1,4,0.1,6.6,0.1
						c1.7,0,3.4,0,4.9,0c0.1-3.3,0-6.3-0.3-8.2c-3.5-0.1-9.6-0.3-14-0.5C270.8,399.3,271.9,402.9,273,403.8z"/>
				</g>
			</g>
			<g>
				<g>
					<ellipse class="st3" cx="289" cy="373.4" rx="7.2" ry="9.1"/>
				</g>
				<g>
					<path d="M289,384c-4.8,0-8.7-4.8-8.7-10.6s3.9-10.6,8.7-10.6c4.8,0,8.7,4.8,8.7,10.6S293.8,384,289,384z M289,365.8
						c-3.1,0-5.7,3.4-5.7,7.6c0,4.2,2.5,7.6,5.7,7.6c3.1,0,5.7-3.4,5.7-7.6C294.6,369.2,292.1,365.8,289,365.8z"/>
				</g>
			</g>
		</g>
	</g>
	<g>
		<path d="M141.6,530.4V255.3h42.3v275.2c0,11.7,9.5,21.2,21.2,21.2h381c11.7,0,21.2-9.5,21.2-21.2V255.3h42.3v275.2
			c0,35.1-28.4,63.5-63.5,63.5h-381C170,593.9,141.6,565.5,141.6,530.4z M607.3,64.8v148.2l-84.7-84.7V64.8
			c0-11.7,9.5-21.2,21.2-21.2h42.3C597.8,43.6,607.3,53.1,607.3,64.8z"/>
		<path d="M365.7,22.5c16.5-16.5,43.3-16.5,59.9,0l281.4,281.3c8.3,8.3,8.3,21.7,0,30s-21.7,8.3-30,0L395.6,52.4L114.3,333.8
			c-8.3,8.3-21.7,8.3-30,0s-8.3-21.7,0-30L365.7,22.5z"/>
	</g>
</g>
</svg>
